                  The Second Front 2005 DVDRip Xvid fasamoo LKRG

RIPPER                           : fasamoo
Format                           : AVI
Format/Info                      : Audio Video Interleave
File size                        : 700 MiB
Duration                         : 1h 31mn
Overall bit rate                 : 1 068 Kbps
Writing application              : VirtualDubMod 1.5.4.1 (build 2178/release)
Writing library                  : VirtualDubMod build 2178/release
Language                         : English
Subtitles                        : English(*.srt) | English|Spanish|Chinese|                                         Malay|Thai|French(*.idx,*.sub)
Genre                            : Action | War

Video
ID                               : 0
Format                           : MPEG-4 Visual
Format profile                   : Advanced Simple@L5
Format settings, BVOP            : Yes
Format settings, QPel            : No
Format settings, GMC             : No warppoints
Format settings, Matrix          : Custom
Codec ID                         : XVID
Codec ID/Hint                    : XviD
Duration                         : 1h 31mn
Bit rate                         : 941 Kbps
Width                            : 544 pixels
Height                           : 352 pixels
Display aspect ratio             : 3:2
Frame rate                       : 23.976 fps
Color space                      : YUV
Chroma subsampling               : 4:2:0
Bit depth                        : 8 bits
Scan type                        : Progressive
Bits/(Pixel*Frame)               : 0.205
Stream size                      : 617 MiB (88%)
Writing library                  : XviD 1.2.1 (UTC 2008-12-04)

Audio
ID                               : 1
Format                           : MPEG Audio
Format version                   : Version 1
Format profile                   : Layer 3
Mode                             : Joint stereo
Mode extension                   : MS Stereo
Codec ID                         : 55
Codec ID/Hint                    : MP3
Duration                         : 1h 31mn
Bit rate mode                    : Variable
Bit rate                         : 114 Kbps
Nominal bit rate                 : 128 Kbps
Channel(s)                       : 2 channels
Sampling rate                    : 48.0 KHz
Stream size                      : 74.7 MiB (11%)
Alignment                        : Aligned on interleaves
Interleave, duration             : 24 ms (0.58 video frame)
Interleave, preload duration     : 546 ms
Writing library                  : LAME3.98r
Encoding settings                : -m j -V 4 -q 2 -lowpass 17 --abr 128


                                 PLOT

In the midst of World War 2, intelligence services from England, Germany and Russia collided in a fierce fight for the mind of Nicky Raus, a genius German Jewish scientist who's developing a weapon of tremendous power. An American agent, Frank Hossom, enters the game when German agents undertake a daring operation stealing the scientist. Frank has to get the scientist back - dead or alive. His mission is complicated by his developing relationship with Olga Ryabina, Nicky's lover, an actress forced to work for KGB. The love triangle and the international intrigue weave into a deadly net.





                                 IMBD
                     
                    http://www.imdb.com/title/tt0407297/
 
http://leetleech.org/images/47972415281209644363.png 
http://leetleech.org/images/65505355537601055053.png 
http://leetleech.org/images/85355777074477635555.png 
http://leetleech.org/images/64643663216698057723.png 
http://leetleech.org/images/08091058845602118900.png

